<svg width="24" height="24" viewBox="0 0 24 24" fill="none" xmlns="http://www.w3.org/2000/svg">
<g clip-path="url(#clip0_5_418)">
<path d="M9.25002 19.25V18.75H5.50002C4.90353 18.7492 4.33169 18.5119 3.90991 18.0901C3.48812 17.6683 3.25082 17.0965 3.25002 16.5V16.118C3.24806 15.6423 3.37964 15.1756 3.62978 14.7709C3.87993 14.3662 4.2386 14.0399 4.66502 13.829C4.85577 13.7337 5.01889 13.5911 5.13882 13.4148C5.25874 13.2385 5.33146 13.0344 5.35002 12.822L5.79602 7.912C5.88019 6.98553 6.17088 6.0897 6.64672 5.29032C7.12255 4.49094 7.77145 3.80833 8.54573 3.29266C9.32001 2.77698 10.2 2.44134 11.121 2.3104C12.042 2.17946 12.9807 2.25655 13.868 2.536C13.5938 2.96241 13.3801 3.42482 13.233 3.91C12.8307 3.80337 12.4162 3.74959 12 3.75C10.8189 3.74446 9.67908 4.1838 8.80725 4.98059C7.93541 5.77737 7.39553 6.8732 7.29502 8.05L6.85002 12.958C6.80864 13.4252 6.64797 13.874 6.38339 14.2613C6.11882 14.6486 5.75921 14.9615 5.33902 15.17C5.16187 15.2572 5.01276 15.3924 4.90863 15.5602C4.80451 15.7279 4.74955 15.9216 4.75002 16.119V16.501C4.75055 16.6997 4.82977 16.89 4.97034 17.0304C5.1109 17.1708 5.30136 17.2497 5.50002 17.25H18.5C18.6989 17.2497 18.8895 17.1706 19.0301 17.03C19.1707 16.8894 19.2498 16.6988 19.25 16.5V16.118C19.2508 15.921 19.1963 15.7277 19.0927 15.5601C18.9891 15.3925 18.8406 15.2574 18.664 15.17C18.2433 14.9619 17.8831 14.6492 17.6179 14.2619C17.3528 13.8745 17.1917 13.4255 17.15 12.958L16.95 10.778C17.4457 10.9233 17.9595 10.9977 18.476 10.999L18.642 12.821C18.6622 13.0328 18.7357 13.2361 18.8557 13.4118C18.9756 13.5875 19.1381 13.73 19.328 13.826C19.7548 14.037 20.1139 14.3635 20.3645 14.7682C20.6151 15.173 20.7473 15.6399 20.746 16.116V16.498C20.7455 17.0946 20.5083 17.6666 20.0864 18.0884C19.6646 18.5103 19.0926 18.7475 18.496 18.748H14.75V19.25C14.75 19.9793 14.4603 20.6788 13.9446 21.1945C13.4288 21.7103 12.7294 22 12 22C11.2707 22 10.5712 21.7103 10.0555 21.1945C9.53975 20.6788 9.25002 19.9793 9.25002 19.25ZM10.75 19.25C10.75 19.5815 10.8817 19.8995 11.1161 20.1339C11.3506 20.3683 11.6685 20.5 12 20.5C12.3315 20.5 12.6495 20.3683 12.8839 20.1339C13.1183 19.8995 13.25 19.5815 13.25 19.25V18.75H10.75V19.25ZM18.297 8.994C17.7521 8.96257 17.2223 8.80364 16.75 8.53L16.706 8.05C16.5992 6.81225 16.0067 5.66714 15.058 4.865C15.1534 4.35318 15.3618 3.86909 15.668 3.448C16.3833 3.96916 16.9792 4.63694 17.4158 5.40674C17.8524 6.17654 18.1198 7.03064 18.2 7.912L18.3 8.993L18.297 8.994Z" fill="#FFFEF3"/>
<path d="M18.5 9C17.8078 9 17.1311 8.79473 16.5555 8.41015C15.9799 8.02556 15.5313 7.47894 15.2664 6.83939C15.0015 6.19985 14.9322 5.49612 15.0673 4.81719C15.2023 4.13825 15.5356 3.51461 16.0251 3.02513C16.5146 2.53564 17.1383 2.2023 17.8172 2.06725C18.4961 1.9322 19.1999 2.00152 19.8394 2.26642C20.4789 2.53133 21.0256 2.97993 21.4101 3.55551C21.7947 4.13108 22 4.80777 22 5.5C22 6.42826 21.6313 7.3185 20.9749 7.97487C20.3185 8.63125 19.4283 9 18.5 9Z" fill="#FF5E00"/>
</g>
<defs>
<clipPath id="clip0_5_418">
<rect width="24" height="24" fill="white"/>
</clipPath>
</defs>
</svg>
