<svg width="12" height="12" viewBox="0 0 12 12" fill="none" xmlns="http://www.w3.org/2000/svg">
<path d="M9 3L8.59955 9.00645C8.5645 9.5325 8.54695 9.79555 8.43335 9.995C8.3333 10.1706 8.1824 10.3118 8.00055 10.3999C7.794 10.5 7.53035 10.5 7.0031 10.5H4.99689C4.46964 10.5 4.20601 10.5 3.99945 10.3999C3.81759 10.3118 3.6667 10.1706 3.56666 9.995C3.45304 9.79555 3.4355 9.5325 3.40043 9.00645L3 3M2 3H10M8 3L7.8647 2.59403C7.73355 2.20062 7.66795 2.00392 7.54635 1.85849C7.43895 1.73007 7.30105 1.63066 7.14525 1.56939C6.9688 1.5 6.7615 1.5 6.3468 1.5H5.6532C5.2385 1.5 5.0312 1.5 4.85476 1.56939C4.69896 1.63066 4.56104 1.73007 4.45365 1.85849C4.33203 2.00392 4.26646 2.20062 4.13532 2.59403L4 3M7 5V8.5M5 5V8.5" stroke="#FFFEF3" stroke-linecap="round" stroke-linejoin="round"/>
</svg>
